<svg xmlns="http://www.w3.org/2000/svg" viewBox="0 0 48 48" width="20px" height="20px"><path fill="#5865f2" d="M24,4C12.954,4,4,12.954,4,24s8.954,20,20,20s20-8.954,20-20S35.046,4,24,4z"/><path fill="#fff" d="M31.2,15.1c-1.5-0.7-3.1-1.2-4.8-1.5c-0.2,0.4-0.4,0.8-0.6,1.2c-1.8-0.3-3.6-0.3-5.4,0 c-0.2-0.4-0.4-0.8-0.6-1.2c-1.7,0.3-3.3,0.8-4.8,1.5c-3,4.5-3.9,8.9-3.5,13.2c2,1.5,4,2.4,5.9,3c0.5-0.6,0.9-1.3,1.2-2 c-0.7-0.3-1.3-0.6-1.9-1c0.2-0.1,0.3-0.2,0.5-0.3c3.7,1.7,7.7,1.7,11.4,0c0.2,0.1,0.3,0.2,0.5,0.3c-0.6,0.4-1.2,0.7-1.9,1 c0.4,0.7,0.7,1.4,1.2,2c2-0.6,3.9-1.5,5.9-3C34.8,23.3,33.6,18.9,31.2,15.1z M19.3,26c-1.1,0-2.1-1.1-2.1-2.4 c0-1.3,0.9-2.4,2.1-2.4c1.1,0,2.1,1.1,2.1,2.4C21.3,24.9,20.4,26,19.3,26z M28.7,26c-1.1,0-2.1-1.1-2.1-2.4 c0-1.3,0.9-2.4,2.1-2.4c1.1,0,2.1,1.1,2.1,2.4C30.7,24.9,29.8,26,28.7,26z"/></svg>
