<svg xmlns="http://www.w3.org/2000/svg" viewBox="0 0 48 48" width="20px" height="20px"><path fill="#25d366" d="M24,4C12.954,4,4,12.954,4,24c0,3.694,1.009,7.148,2.76,10.116L4.1,43.9l9.784-2.66 C16.852,42.988,20.326,44,24,44c11.046,0,20-8.954,20-20S35.046,4,24,4z"/><path fill="#fff" d="M34.6,29.2c-0.5-0.3-3.1-1.5-3.6-1.7c-0.5-0.2-0.8-0.2-1.2,0.3c-0.3,0.5-1.3,1.7-1.6,2 c-0.3,0.3-0.6,0.4-1.1,0.1c-0.5-0.3-2.2-0.8-4.1-2.6c-1.5-1.4-2.6-3.1-2.9-3.6c-0.3-0.5,0-0.8,0.2-1.1 c0.2-0.2,0.5-0.6,0.8-0.9c0.2-0.3,0.3-0.5,0.5-0.8c0.2-0.3,0.1-0.6,0-0.9c-0.1-0.3-1.2-2.8-1.6-3.8c-0.4-1-0.8-0.9-1.2-0.9 c-0.3,0-0.6,0-0.9,0c-0.3,0-0.9,0.1-1.3,0.6c-0.5,0.5-1.7,1.7-1.7,4.2c0,2.4,1.8,4.8,2,5.1c0.2,0.3,3.5,5.3,8.4,7.5 c1.2,0.5,2.1,0.8,2.8,1c1.2,0.4,2.3,0.3,3.1,0.2c1-0.1,3.1-1.3,3.5-2.5c0.4-1.2,0.4-2.3,0.3-2.5 C35.4,29.6,35.1,29.5,34.6,29.2z"/></svg>
